<svg xmlns="http://www.w3.org/2000/svg" viewBox="0 7.300000190734863 322.3500061035156 43.35000228881836" data-asc="0.995" width="322.3500061035156" height="43.35000228881836"><defs/><g><g fill="#FFFFFF"><g transform="translate(0, 0)"><path d="M0 21L12.70 21L14.70 33.25L14.70 49.75L2 49.75L2 31.30L0 21M24.15 20.10Q28.20 20.10 31.05 21.77Q33.90 23.45 35.40 26.47Q36.90 29.50 36.90 33.55L36.90 49.75L24.20 49.75L24.20 35.35Q24.20 32.95 23.03 31.65Q21.85 30.35 19.65 30.35Q18.10 30.35 16.98 31.02Q15.85 31.70 15.27 32.97Q14.70 34.25 14.70 36.05L10.95 34.15Q11.65 29.45 13.57 26.32Q15.50 23.20 18.25 21.65Q21 20.10 24.15 20.10M46.30 20.10Q50.35 20.10 53.23 21.77Q56.10 23.45 57.60 26.47Q59.10 29.50 59.10 33.55L59.10 49.75L46.40 49.75L46.40 35.35Q46.40 32.95 45.23 31.65Q44.05 30.35 41.85 30.35Q40.30 30.35 39.18 31.02Q38.05 31.70 37.48 32.97Q36.90 34.25 36.90 36.05L33.15 34.15Q33.85 29.45 35.75 26.32Q37.65 23.20 40.40 21.65Q43.15 20.10 46.30 20.10ZM63.55 20.40L69.90 21.70L76.25 20.40L76.25 49.75L63.55 49.75L63.55 20.40M69.90 18.90Q66.70 18.90 64.75 17.35Q62.80 15.80 62.80 13.10Q62.80 10.40 64.75 8.85Q66.70 7.30 69.90 7.30Q73.15 7.30 75.08 8.85Q77 10.40 77 13.10Q77 15.80 75.08 17.35Q73.15 18.90 69.90 18.90ZM81.05 11.25L93.75 11.25L93.75 49.75L81.05 49.75L81.05 11.25ZM116.10 50.65Q110.75 50.65 106.53 48.73Q102.30 46.80 99.85 43.33Q97.40 39.85 97.40 35.25Q97.40 30.70 99.78 27.30Q102.15 23.90 106.25 22Q110.35 20.10 115.45 20.10Q120.80 20.10 124.55 22.38Q128.30 24.65 130.30 28.82Q132.30 33 132.30 38.70L107.80 38.70L107.80 31.75L124.90 31.75L121.50 34.10Q121.30 32.35 120.58 31.15Q119.85 29.95 118.70 29.32Q117.55 28.70 115.95 28.70Q114.10 28.70 112.83 29.42Q111.55 30.15 110.88 31.40Q110.20 32.65 110.20 34.20Q110.20 36.60 111.28 38.23Q112.35 39.85 114.55 40.70Q116.75 41.55 120.10 41.55Q123.20 41.55 126.15 40.85Q129.10 40.15 131.60 38.85L131.60 46.55Q128.40 48.55 124.63 49.60Q120.85 50.65 116.10 50.65ZM171.65 39.95Q171.65 43.55 169.40 45.92Q167.15 48.30 163.13 49.48Q159.10 50.65 153.70 50.65Q148.15 50.65 143.93 49.33Q139.70 48 137.28 45.63Q134.85 43.25 134.70 40.10L147.60 40.10Q147.95 40.95 148.80 41.52Q149.65 42.10 151.03 42.38Q152.40 42.65 154.40 42.65Q156.80 42.65 158.05 42.30Q159.30 41.95 159.30 41.30Q159.30 40.55 158.25 40.23Q157.20 39.90 154.85 39.75L150.15 39.45Q144.70 39.10 141.47 37.98Q138.25 36.85 136.85 34.90Q135.45 32.95 135.45 30.25Q135.45 26.80 137.63 24.55Q139.80 22.30 143.70 21.20Q147.60 20.10 152.80 20.10Q157.90 20.10 161.85 21.38Q165.80 22.65 168.20 24.90Q170.60 27.15 171 30.20L158.10 30.20Q157.85 29.40 157.10 28.82Q156.35 28.25 155.15 27.92Q153.95 27.60 152.25 27.60Q149.95 27.60 148.90 27.97Q147.85 28.35 147.85 29Q147.85 29.75 148.50 30.05Q149.15 30.35 151.05 30.45L157.35 30.85Q162.75 31.15 165.88 32.27Q169 33.40 170.33 35.30Q171.65 37.20 171.65 39.95ZM173.25 30.25L173.25 24.80L178.90 21.95L184.45 13.15L191.60 13.15L191.60 21L202.85 21L202.85 30.25L191.60 30.25L191.60 36.15Q191.60 38.90 192.65 40.02Q193.70 41.15 196.95 41.15Q198.95 41.15 200.53 40.88Q202.10 40.60 203.35 40.20L203.35 49.40Q201.65 49.90 199.18 50.27Q196.70 50.65 194.00 50.65Q188.90 50.65 185.55 49.13Q182.20 47.60 180.55 44.70Q178.90 41.80 178.90 37.80L178.90 30.25L173.25 30.25ZM224.95 50.65Q219.25 50.65 214.98 48.75Q210.70 46.85 208.33 43.40Q205.95 39.95 205.95 35.40Q205.95 30.80 208.33 27.35Q210.70 23.90 214.98 22Q219.25 20.10 224.95 20.10Q230.65 20.10 234.93 22Q239.20 23.90 241.58 27.35Q243.95 30.80 243.95 35.40Q243.95 39.95 241.58 43.40Q239.20 46.85 234.93 48.75Q230.65 50.65 224.95 50.65M224.95 41.40Q226.95 41.40 228.33 40.70Q229.70 40 230.43 38.65Q231.15 37.30 231.15 35.40Q231.15 33.45 230.43 32.10Q229.70 30.75 228.33 30.05Q226.95 29.35 224.95 29.35Q223.00 29.35 221.60 30.05Q220.20 30.75 219.48 32.10Q218.75 33.45 218.75 35.35Q218.75 37.30 219.48 38.65Q220.20 40 221.60 40.70Q223.00 41.40 224.95 41.40ZM246.25 21L258.95 21L260.95 33.25L260.95 49.75L248.25 49.75L248.25 31.30L246.25 21M270.90 20.10Q275.10 20.10 278.05 21.77Q281 23.45 282.58 26.47Q284.15 29.50 284.15 33.55L284.15 49.75L271.45 49.75L271.45 35.35Q271.45 32.95 270.13 31.65Q268.80 30.35 266.40 30.35Q264.70 30.35 263.48 31.02Q262.25 31.70 261.60 32.97Q260.95 34.25 260.95 36.05L257.20 34.15Q257.90 29.45 259.90 26.32Q261.90 23.20 264.75 21.65Q267.60 20.10 270.90 20.10ZM306.15 50.65Q300.80 50.65 296.58 48.73Q292.35 46.80 289.90 43.33Q287.45 39.85 287.45 35.25Q287.45 30.70 289.83 27.30Q292.20 23.90 296.30 22Q300.40 20.10 305.50 20.10Q310.85 20.10 314.60 22.38Q318.35 24.65 320.35 28.82Q322.35 33 322.35 38.70L297.85 38.70L297.85 31.75L314.95 31.75L311.55 34.10Q311.35 32.35 310.63 31.15Q309.90 29.95 308.75 29.32Q307.60 28.70 306.00 28.70Q304.15 28.70 302.88 29.42Q301.60 30.15 300.93 31.40Q300.25 32.65 300.25 34.20Q300.25 36.60 301.33 38.23Q302.40 39.85 304.60 40.70Q306.80 41.55 310.15 41.55Q313.25 41.55 316.20 40.85Q319.15 40.15 321.65 38.85L321.65 46.55Q318.45 48.55 314.68 49.60Q310.90 50.65 306.15 50.65Z"/></g></g></g></svg>